<svg width="202" height="78" viewBox="0 0 202 78" fill="none" xmlns="http://www.w3.org/2000/svg">
<path fill-rule="evenodd" clip-rule="evenodd" d="M152.011 5H46.007C35.9358 5 27.6033 12.4439 26.2114 22.1299H21.1699C22.5936 9.6745 33.1705 0 46.007 0H152.011C164.847 0 175.424 9.67451 176.848 22.1299H171.806C170.414 12.4439 162.082 5 152.011 5ZM171.806 48.8701C170.414 58.5561 162.082 66 152.011 66H46.0069C35.9358 66 27.6033 58.5561 26.2114 48.8701H21.1699C22.5936 61.3255 33.1705 71 46.0069 71H152.011C164.847 71 175.424 61.3255 176.848 48.8701H171.806Z" fill="#9099A6"/>
<mask id="mask0" mask-type="alpha" maskUnits="userSpaceOnUse" x="0" y="39" width="202" height="39">
<rect y="39" width="202" height="39" fill="#C4C4C4"/>
</mask>
<g mask="url(#mask0)">
<path fill-rule="evenodd" clip-rule="evenodd" d="M152.011 5H46.007C35.9358 5 27.6033 12.4439 26.2114 22.1299H21.1699C22.5936 9.6745 33.1705 0 46.007 0H152.011C164.847 0 175.424 9.67451 176.848 22.1299H171.806C170.414 12.4439 162.082 5 152.011 5ZM171.806 48.8701C170.414 58.5561 162.082 66 152.011 66H46.0069C35.9358 66 27.6033 58.5561 26.2114 48.8701H21.1699C22.5936 61.3255 33.1705 71 46.0069 71H152.011C164.847 71 175.424 61.3255 176.848 48.8701H171.806Z" fill="#FF6C6C"/>
</g>
<path d="M23.203 31.3633C23.6031 30.8352 24.3969 30.8352 24.797 31.3633L36.9462 47.396C37.4453 48.0546 36.9755 49 36.1492 49H11.8508C11.0245 49 10.5547 48.0546 11.0538 47.396L23.203 31.3633Z" stroke="#FF6C6C" stroke-width="4"/>
<path d="M174.797 39.6367C174.397 40.1648 173.603 40.1648 173.203 39.6367L161.054 23.604C160.555 22.9454 161.024 22 161.851 22L186.149 22C186.976 22 187.445 22.9454 186.946 23.604L174.797 39.6367Z" stroke="#9099A6" stroke-width="4"/>
</svg>
