<svg width="375" height="1044" viewBox="0 0 375 1044" fill="none" xmlns="http://www.w3.org/2000/svg">
<path d="M62.1739 564.478L54.8261 561.653L0 592.47V1044H1482V0L1440.74 29.9473L1424.35 24.8619L1402.3 43.5084H1385.35L1374.04 54.8092L1367.83 53.1141L1346.91 70.0654L1336.17 63.2849L1319.22 80.8013L1310.74 77.411L1276.83 102.273L1258.74 120.919L1248 114.704H1237.26H1227.65L1213.52 126.57H1188.09L1175.09 136.741L1159.83 139.001L1145.7 149.737L1133.83 145.781L1129.87 157.647L1121.39 151.997L1089.74 173.468L1067.7 167.818L1042.83 203.416L1031.52 199.46L993.087 228.843L954.087 246.924L938.826 248.619L906.609 262.18H891.913L871 267.831L860.826 286.477L853.478 279.132L835.957 286.477L809.956 292.128L798.652 298.908H786.783L781.13 314.729L769.826 307.384L746.087 318.685L726.87 331.681L700.304 347.502H688.435L676 358.238L643.217 364.453L614.391 371.799L592.348 393.27L588.957 387.62L546 393.27L517.739 406.832H493.435L467.435 435.084L451.043 441.299L436.913 435.084L408.087 455.425H392.261L366.826 461.075C360.043 462.394 346.252 465.257 345.348 466.161C344.443 467.065 325.377 475.202 315.957 479.157L302.391 496.673L283.174 480.287L235.696 506.844L206.304 515.885V506.844L197.826 515.885L138.478 539.617H116.435L106.261 551.482H91.5652L62.1739 564.478Z" fill="white"/>
</svg>
