<svg width="1483" height="593" viewBox="0 0 1483 593" fill="none" xmlns="http://www.w3.org/2000/svg">
<path d="M63.1661 564.478L55.8183 561.653L0.992188 592.47H1H742H1483L1482.99 0L1441.73 29.9473L1425.34 24.8619L1403.3 43.5084H1386.34L1375.03 54.8092L1368.82 53.1141L1347.9 70.0654L1337.17 63.2849L1320.21 80.8013L1311.73 77.411L1277.82 102.273L1259.73 120.919L1248.99 114.704H1238.25H1228.64L1214.51 126.57H1189.08L1176.08 136.741L1160.82 139.001L1146.69 149.737L1134.82 145.781L1130.86 157.647L1122.38 151.997L1090.73 173.468L1068.69 167.818L1043.82 203.416L1032.51 199.46L994.079 228.843L955.079 246.924L939.818 248.619L907.601 262.18H892.905L871.992 267.831L861.818 286.477L854.47 279.132L836.949 286.477L810.949 292.128L799.644 298.908H787.775L782.123 314.729L770.818 307.384L747.079 318.685L727.862 331.681L701.297 347.502H689.427L676.992 358.238L644.21 364.453L615.383 371.799L593.34 393.27L589.949 387.62L546.992 393.27L518.731 406.832H494.427L468.427 435.084L452.036 441.299L437.905 435.084L409.079 455.425H393.253L367.818 461.075C361.036 462.394 347.244 465.257 346.34 466.161C345.436 467.065 326.369 475.202 316.949 479.157L303.383 496.673L284.166 480.287L236.688 506.844L207.297 515.885V506.844L198.818 515.885L139.47 539.617H117.427L107.253 551.482H92.5574L63.1661 564.478Z" fill="white"/>
</svg>
