<svg width="143" height="96" viewBox="0 0 143 96" fill="none" xmlns="http://www.w3.org/2000/svg">
<mask id="mask0" mask-type="alpha" maskUnits="userSpaceOnUse" x="48" y="28" width="95" height="68">
<path d="M48 95.4664L76.1889 28.9998L143 28.9998V95.4663L48 95.4664Z" fill="#C4C4C4"/>
</mask>
<g mask="url(#mask0)">
<rect x="45.3301" y="45.3197" width="89.6112" height="3.56071" rx="1.78035" fill="#9099A6"/>
<rect x="45.3301" y="56.002" width="95.5457" height="3.56071" rx="1.78035" fill="#FF6C6C"/>
<rect x="45.9229" y="66.684" width="70.0273" height="3.56071" rx="1.78035" fill="#FF6C6C"/>
</g>
<path d="M42.4741 53.8516H13.9409C10.2939 49.1894 3 37.8382 3 29.732C3.24866 12.7613 13.1327 3.18804 29.2332 3.00155C45.3336 2.81506 53.9744 19.475 54.0366 29.732C54.0863 37.9377 46.349 49.2308 42.4741 53.8516Z" stroke="#9099A6" stroke-width="6"/>
<path d="M38.3703 74.6766H18.6021C19.5968 79.028 20.6536 81.9497 29.2322 81.7633C36.0951 81.6141 38.1838 76.9766 38.3703 74.6766Z" fill="#9099A6"/>
<path d="M39.3649 62.4924H17.1724C13.5917 66.0233 15.6804 69.4755 17.1724 70.7602H39.3649C43.6418 67.6272 41.1469 63.9429 39.3649 62.4924Z" fill="#9099A6"/>
</svg>
