<svg width="410" height="662" viewBox="0 0 410 662" fill="none" xmlns="http://www.w3.org/2000/svg">
<g filter="url(#filter0_dii)">
<path d="M60.9082 114.925C60.9082 95.6995 60.9082 86.0867 64.6479 78.7435C67.9375 72.2843 73.1865 67.0327 79.6426 63.7416C86.9823 60 96.5904 60 115.807 60H254.191C273.408 60 283.016 60 290.356 63.7416C296.812 67.0327 302.061 72.2843 305.35 78.7435C309.09 86.0867 309.09 95.6995 309.09 114.925V506.62C309.09 525.846 309.09 535.459 305.35 542.802C302.061 549.261 296.812 554.513 290.356 557.804C283.016 561.545 273.408 561.545 254.191 561.545H115.807C96.5904 561.545 86.9823 561.545 79.6426 557.804C73.1865 554.513 67.9375 549.261 64.6479 542.802C60.9082 535.459 60.9082 525.846 60.9082 506.62V114.925Z" fill="#F2F2F2"/>
</g>
<path d="M76.1826 108.494C76.1826 96.7697 76.1826 90.9078 78.4657 86.4299C80.474 82.491 83.6785 79.2886 87.62 77.2816C92.1008 75 97.9666 75 109.698 75H260.576C272.308 75 278.173 75 282.654 77.2816C286.596 79.2886 289.8 82.491 291.808 86.4299C294.092 90.9078 294.092 96.7697 294.092 108.494V513.052C294.092 524.776 294.092 530.637 291.808 535.115C289.8 539.054 286.596 542.257 282.654 544.264C278.173 546.545 272.308 546.545 260.576 546.545H109.698C97.9666 546.545 92.1008 546.545 87.62 544.264C83.6785 542.257 80.474 539.054 78.4657 535.115C76.1826 530.637 76.1826 524.776 76.1826 513.052V108.494Z" fill="url(#paint0_linear)"/>
<defs>
<filter id="filter0_dii" x="0.908203" y="3.05176e-05" width="408.182" height="661.545" filterUnits="userSpaceOnUse" color-interpolation-filters="sRGB">
<feFlood flood-opacity="0" result="BackgroundImageFix"/>
<feColorMatrix in="SourceAlpha" type="matrix" values="0 0 0 0 0 0 0 0 0 0 0 0 0 0 0 0 0 0 127 0"/>
<feOffset dx="20" dy="20"/>
<feGaussianBlur stdDeviation="40"/>
<feColorMatrix type="matrix" values="0 0 0 0 0 0 0 0 0 0 0 0 0 0 0 0 0 0 0.15 0"/>
<feBlend mode="normal" in2="BackgroundImageFix" result="effect1_dropShadow"/>
<feBlend mode="normal" in="SourceGraphic" in2="effect1_dropShadow" result="shape"/>
<feColorMatrix in="SourceAlpha" type="matrix" values="0 0 0 0 0 0 0 0 0 0 0 0 0 0 0 0 0 0 127 0" result="hardAlpha"/>
<feOffset dx="-10" dy="-10"/>
<feGaussianBlur stdDeviation="10"/>
<feComposite in2="hardAlpha" operator="arithmetic" k2="-1" k3="1"/>
<feColorMatrix type="matrix" values="0 0 0 0 0 0 0 0 0 0 0 0 0 0 0 0 0 0 0.15 0"/>
<feBlend mode="normal" in2="shape" result="effect2_innerShadow"/>
<feColorMatrix in="SourceAlpha" type="matrix" values="0 0 0 0 0 0 0 0 0 0 0 0 0 0 0 0 0 0 127 0" result="hardAlpha"/>
<feOffset dy="4"/>
<feGaussianBlur stdDeviation="2"/>
<feComposite in2="hardAlpha" operator="arithmetic" k2="-1" k3="1"/>
<feColorMatrix type="matrix" values="0 0 0 0 0 0 0 0 0 0 0 0 0 0 0 0 0 0 0.07 0"/>
<feBlend mode="normal" in2="effect2_innerShadow" result="effect3_innerShadow"/>
</filter>
<linearGradient id="paint0_linear" x1="185.137" y1="75" x2="185.137" y2="546.545" gradientUnits="userSpaceOnUse">
<stop stop-color="white"/>
<stop offset="1" stop-color="white" stop-opacity="0"/>
</linearGradient>
</defs>
</svg>
