<svg width="633" height="1114" viewBox="0 0 633 1114" fill="none" xmlns="http://www.w3.org/2000/svg">
<g filter="url(#filter0_dii)">
<path d="M60.6299 164.439C60.6299 127.882 60.6299 109.604 67.7409 95.6406C73.996 83.3584 83.9769 73.3727 96.2532 67.1146C110.209 60.0001 128.479 60.0001 165.019 60.0001H428.155C464.695 60.0001 482.965 60.0001 496.921 67.1146C509.197 73.3727 519.178 83.3584 525.433 95.6406C532.544 109.604 532.544 127.882 532.544 164.439V909.242C532.544 945.8 532.544 964.078 525.433 978.041C519.178 990.324 509.197 1000.31 496.921 1006.57C482.965 1013.68 464.695 1013.68 428.155 1013.68H165.019C128.479 1013.68 110.209 1013.68 96.2532 1006.57C83.9769 1000.31 73.996 990.324 67.7409 978.041C60.6299 964.078 60.6299 945.8 60.6299 909.242V164.439Z" fill="#F2F2F2"/>
</g>
<path d="M89.6709 152.21C89.6709 129.917 89.6709 118.771 94.0122 110.256C97.8309 102.766 103.924 96.677 111.419 92.8608C119.939 88.5224 131.093 88.5224 153.4 88.5224H440.293C462.6 88.5224 473.754 88.5224 482.274 92.8608C489.769 96.677 495.862 102.766 499.681 110.256C504.022 118.771 504.022 129.917 504.022 152.21V921.472C504.022 943.765 504.022 954.911 499.681 963.426C495.862 970.916 489.769 977.005 482.274 980.821C473.754 985.16 462.6 985.16 440.293 985.16H153.4C131.093 985.16 119.939 985.16 111.419 980.821C103.924 977.005 97.8309 970.916 94.0122 963.426C89.6709 954.911 89.6709 943.765 89.6709 921.472V152.21Z" fill="url(#paint0_linear)"/>
<g filter="url(#filter1_i)">
<path d="M57 191.717C57 189.714 58.6253 188.091 60.6301 188.091V226.985C58.6253 226.985 57 225.362 57 223.36V191.717Z" fill="white"/>
</g>
<g filter="url(#filter2_i)">
<path d="M57 260.177C57 258.171 58.6253 256.545 60.6301 256.545V326.554C58.6253 326.554 57 324.928 57 322.922V260.177Z" fill="white"/>
</g>
<g filter="url(#filter3_i)">
<path d="M57 347.791C57 345.8 58.6253 344.186 60.6301 344.186V413.677C58.6253 413.677 57 412.062 57 410.071V347.791Z" fill="white"/>
</g>
<g filter="url(#filter4_i)">
<path d="M536.175 283.426C536.175 281.468 534.55 279.881 532.545 279.881V390.859C534.55 390.859 536.175 389.272 536.175 387.314V283.426Z" fill="white"/>
</g>
<path fill-rule="evenodd" clip-rule="evenodd" d="M303.453 88.5224H175.238C178.954 88.7461 181.076 91.306 181.308 94.6274V99.094C181.308 111.872 191.702 122.231 204.524 122.231H303.453H307.78H389.169C401.991 122.231 412.385 111.872 412.385 99.094V94.6274C412.617 91.306 414.739 88.7461 418.455 88.5224H307.78H303.453Z" fill="#F2F2F2"/>
<path d="M267.028 98.6534C267.028 96.4951 268.842 94.7454 271.079 94.7454H322.095C324.333 94.7454 326.147 96.4951 326.147 98.6534V99.1348C326.147 101.293 324.333 103.043 322.095 103.043H271.079C268.842 103.043 267.028 101.293 267.028 99.1348V98.6534Z" fill="#EAEAEA"/>
<path d="M353.632 98.8941C353.632 102.617 350.613 105.636 346.89 105.636C343.167 105.636 340.148 102.617 340.148 98.8941C340.148 95.1708 343.167 92.1525 346.89 92.1525C350.613 92.1525 353.632 95.1708 353.632 98.8941Z" fill="#C4C4C4"/>
<path d="M351.039 98.8941C351.039 101.185 349.181 103.043 346.89 103.043C344.599 103.043 342.741 101.185 342.741 98.8941C342.741 96.6028 344.599 94.7454 346.89 94.7454C349.181 94.7454 351.039 96.6028 351.039 98.8941Z" fill="url(#paint1_radial)"/>
<mask id="mask0" mask-type="alpha" maskUnits="userSpaceOnUse" x="267" y="94" width="60" height="10">
<path d="M267.028 98.6534C267.028 96.4951 268.842 94.7454 271.079 94.7454H322.095C324.333 94.7454 326.147 96.4951 326.147 98.6534V99.1348C326.147 101.293 324.333 103.043 322.095 103.043H271.079C268.842 103.043 267.028 101.293 267.028 99.1348V98.6534Z" fill="#EAEAEA"/>
</mask>
<g mask="url(#mask0)">
<path fill-rule="evenodd" clip-rule="evenodd" d="M247.962 94.7453H246.803V103.043H246.803L246.803 103.043H340.148L340.148 103.043L340.148 94.7453H338.989H337.076H335.916H334.003H332.844H330.93H329.771H327.857H326.698H324.784H323.625H321.711H320.552H318.638H317.479H315.565H314.406H312.492H311.333H309.42H308.26H306.347H305.188H303.274H302.115H300.201H299.042H297.128H295.969H294.055H292.896H290.982H289.823H287.909H286.75H284.836H283.677H281.764H280.604H278.691H277.532H275.618H274.459H272.545H271.386H269.472H268.313H266.399H265.24H263.326H262.167H260.253H259.094H257.18H256.021H254.108H252.949H251.035H249.876L247.962 94.7453V94.7453ZM338.989 96.4307H337.076V98.0514H338.989V96.4307ZM338.989 99.7368H337.076V101.357H338.989V99.7368ZM335.916 99.7368V101.357H334.003V99.7368H335.916ZM335.916 96.4307V98.0514H334.003V96.4307H335.916ZM332.844 96.4307H330.93V98.0514H332.844V96.4307ZM332.844 99.7368H330.93V101.357H332.844V99.7368ZM329.771 99.7368V101.357H327.857V99.7368H329.771ZM329.771 96.4307V98.0514H327.857V96.4307H329.771ZM326.698 96.4307H324.784V98.0514H326.698V96.4307ZM326.698 99.7368H324.784V101.357H326.698V99.7368ZM323.625 99.7368V101.357H321.711V99.7368H323.625ZM323.625 96.4307V98.0514H321.711V96.4307H323.625ZM320.552 96.4307H318.638V98.0514H320.552V96.4307ZM320.552 99.7368H318.638V101.357H320.552V99.7368ZM317.479 99.7368V101.357H315.565V99.7368H317.479ZM317.479 96.4307V98.0514H315.565V96.4307H317.479ZM314.406 96.4307H312.492V98.0514H314.406V96.4307ZM314.406 99.7368H312.492V101.357H314.406V99.7368ZM311.333 99.7368V101.357H309.42V99.7368H311.333ZM311.333 96.4307V98.0514H309.42V96.4307H311.333ZM308.26 96.4307H306.347V98.0514H308.26V96.4307ZM308.26 99.7368H306.347V101.357H308.26V99.7368ZM305.188 99.7368V101.357H303.274V99.7368H305.188ZM305.188 96.4307V98.0514H303.274V96.4307H305.188ZM302.115 96.4307H300.201V98.0514H302.115V96.4307ZM302.115 99.7368H300.201V101.357H302.115V99.7368ZM299.042 99.7368V101.357H297.128V99.7368H299.042ZM299.042 96.4307V98.0514H297.128V96.4307H299.042ZM295.969 96.4307H294.055V98.0514H295.969V96.4307ZM295.969 99.7368H294.055V101.357H295.969V99.7368ZM292.896 99.7368V101.357H290.982V99.7368H292.896ZM292.896 96.4307V98.0514H290.982V96.4307H292.896ZM289.823 96.4307H287.909V98.0514H289.823V96.4307ZM289.823 99.7368H287.909V101.357H289.823V99.7368ZM286.75 99.7368V101.357H284.836V99.7368H286.75ZM286.75 96.4307V98.0514H284.836V96.4307H286.75ZM283.677 96.4307H281.764V98.0514H283.677V96.4307ZM283.677 99.7368H281.764V101.357H283.677V99.7368ZM280.604 99.7368V101.357H278.691V99.7368H280.604ZM280.604 96.4307V98.0514H278.691V96.4307H280.604ZM277.532 96.4307H275.618V98.0514H277.532V96.4307ZM277.532 99.7368H275.618V101.357H277.532V99.7368ZM274.459 99.7368V101.357H272.545V99.7368H274.459ZM274.459 96.4307V98.0514H272.545V96.4307H274.459ZM271.386 96.4307H269.472V98.0514H271.386V96.4307ZM271.386 99.7368H269.472V101.357H271.386V99.7368ZM268.313 99.7368V101.357H266.399V99.7368H268.313ZM268.313 96.4307V98.0514H266.399V96.4307H268.313ZM265.24 96.4307H263.326V98.0514H265.24V96.4307ZM265.24 99.7368H263.326V101.357H265.24V99.7368ZM262.167 99.7368V101.357H260.253V99.7368H262.167ZM262.167 96.4307V98.0514H260.253V96.4307H262.167ZM259.094 96.4307H257.18V98.0514H259.094V96.4307ZM259.094 99.7368H257.18V101.357H259.094V99.7368ZM256.021 99.7368V101.357H254.108V99.7368H256.021ZM256.021 96.4307V98.0514H254.108V96.4307H256.021ZM252.949 96.4307H251.035V98.0514H252.949V96.4307ZM252.949 99.7368H251.035V101.357H252.949V99.7368ZM249.876 99.7368V101.357H247.962V99.7368H249.876ZM249.876 96.4307V98.0514H247.962V96.4307H249.876Z" fill="#C4C4C4"/>
</g>
<defs>
<filter id="filter0_dii" x="0.629883" y="6.10352e-05" width="631.914" height="1113.68" filterUnits="userSpaceOnUse" color-interpolation-filters="sRGB">
<feFlood flood-opacity="0" result="BackgroundImageFix"/>
<feColorMatrix in="SourceAlpha" type="matrix" values="0 0 0 0 0 0 0 0 0 0 0 0 0 0 0 0 0 0 127 0"/>
<feOffset dx="20" dy="20"/>
<feGaussianBlur stdDeviation="40"/>
<feColorMatrix type="matrix" values="0 0 0 0 0 0 0 0 0 0 0 0 0 0 0 0 0 0 0.15 0"/>
<feBlend mode="normal" in2="BackgroundImageFix" result="effect1_dropShadow"/>
<feBlend mode="normal" in="SourceGraphic" in2="effect1_dropShadow" result="shape"/>
<feColorMatrix in="SourceAlpha" type="matrix" values="0 0 0 0 0 0 0 0 0 0 0 0 0 0 0 0 0 0 127 0" result="hardAlpha"/>
<feOffset dx="-10" dy="-10"/>
<feGaussianBlur stdDeviation="10"/>
<feComposite in2="hardAlpha" operator="arithmetic" k2="-1" k3="1"/>
<feColorMatrix type="matrix" values="0 0 0 0 0 0 0 0 0 0 0 0 0 0 0 0 0 0 0.15 0"/>
<feBlend mode="normal" in2="shape" result="effect2_innerShadow"/>
<feColorMatrix in="SourceAlpha" type="matrix" values="0 0 0 0 0 0 0 0 0 0 0 0 0 0 0 0 0 0 127 0" result="hardAlpha"/>
<feOffset dy="4"/>
<feGaussianBlur stdDeviation="2"/>
<feComposite in2="hardAlpha" operator="arithmetic" k2="-1" k3="1"/>
<feColorMatrix type="matrix" values="0 0 0 0 0 0 0 0 0 0 0 0 0 0 0 0 0 0 0.07 0"/>
<feBlend mode="normal" in2="effect2_innerShadow" result="effect3_innerShadow"/>
</filter>
<filter id="filter1_i" x="57" y="188.091" width="3.63011" height="42.894" filterUnits="userSpaceOnUse" color-interpolation-filters="sRGB">
<feFlood flood-opacity="0" result="BackgroundImageFix"/>
<feBlend mode="normal" in="SourceGraphic" in2="BackgroundImageFix" result="shape"/>
<feColorMatrix in="SourceAlpha" type="matrix" values="0 0 0 0 0 0 0 0 0 0 0 0 0 0 0 0 0 0 127 0" result="hardAlpha"/>
<feOffset dy="4"/>
<feGaussianBlur stdDeviation="2"/>
<feComposite in2="hardAlpha" operator="arithmetic" k2="-1" k3="1"/>
<feColorMatrix type="matrix" values="0 0 0 0 0 0 0 0 0 0 0 0 0 0 0 0 0 0 0.25 0"/>
<feBlend mode="normal" in2="shape" result="effect1_innerShadow"/>
</filter>
<filter id="filter2_i" x="57" y="256.545" width="3.63011" height="74.0093" filterUnits="userSpaceOnUse" color-interpolation-filters="sRGB">
<feFlood flood-opacity="0" result="BackgroundImageFix"/>
<feBlend mode="normal" in="SourceGraphic" in2="BackgroundImageFix" result="shape"/>
<feColorMatrix in="SourceAlpha" type="matrix" values="0 0 0 0 0 0 0 0 0 0 0 0 0 0 0 0 0 0 127 0" result="hardAlpha"/>
<feOffset dy="4"/>
<feGaussianBlur stdDeviation="2"/>
<feComposite in2="hardAlpha" operator="arithmetic" k2="-1" k3="1"/>
<feColorMatrix type="matrix" values="0 0 0 0 0 0 0 0 0 0 0 0 0 0 0 0 0 0 0.25 0"/>
<feBlend mode="normal" in2="shape" result="effect1_innerShadow"/>
</filter>
<filter id="filter3_i" x="57" y="344.186" width="3.63011" height="73.4907" filterUnits="userSpaceOnUse" color-interpolation-filters="sRGB">
<feFlood flood-opacity="0" result="BackgroundImageFix"/>
<feBlend mode="normal" in="SourceGraphic" in2="BackgroundImageFix" result="shape"/>
<feColorMatrix in="SourceAlpha" type="matrix" values="0 0 0 0 0 0 0 0 0 0 0 0 0 0 0 0 0 0 127 0" result="hardAlpha"/>
<feOffset dy="4"/>
<feGaussianBlur stdDeviation="2"/>
<feComposite in2="hardAlpha" operator="arithmetic" k2="-1" k3="1"/>
<feColorMatrix type="matrix" values="0 0 0 0 0 0 0 0 0 0 0 0 0 0 0 0 0 0 0.25 0"/>
<feBlend mode="normal" in2="shape" result="effect1_innerShadow"/>
</filter>
<filter id="filter4_i" x="532.545" y="279.881" width="3.63011" height="114.978" filterUnits="userSpaceOnUse" color-interpolation-filters="sRGB">
<feFlood flood-opacity="0" result="BackgroundImageFix"/>
<feBlend mode="normal" in="SourceGraphic" in2="BackgroundImageFix" result="shape"/>
<feColorMatrix in="SourceAlpha" type="matrix" values="0 0 0 0 0 0 0 0 0 0 0 0 0 0 0 0 0 0 127 0" result="hardAlpha"/>
<feOffset dy="4"/>
<feGaussianBlur stdDeviation="2"/>
<feComposite in2="hardAlpha" operator="arithmetic" k2="-1" k3="1"/>
<feColorMatrix type="matrix" values="0 0 0 0 0 0 0 0 0 0 0 0 0 0 0 0 0 0 0.25 0"/>
<feBlend mode="normal" in2="shape" result="effect1_innerShadow"/>
</filter>
<linearGradient id="paint0_linear" x1="296.846" y1="88.5224" x2="296.846" y2="985.16" gradientUnits="userSpaceOnUse">
<stop stop-color="white"/>
<stop offset="1" stop-color="white" stop-opacity="0"/>
</linearGradient>
<radialGradient id="paint1_radial" cx="0" cy="0" r="1" gradientUnits="userSpaceOnUse" gradientTransform="translate(345.181 98.3551) rotate(69.9659) scale(4.98958)">
<stop stop-color="#A792FE"/>
<stop offset="1" stop-color="#141023"/>
</radialGradient>
</defs>
</svg>
