<svg width="480" height="954" viewBox="0 0 480 954" fill="none" xmlns="http://www.w3.org/2000/svg">
<g filter="url(#filter0_ii)">
<path d="M3.63007 104.439C3.63007 67.8822 3.63007 49.6035 10.7411 35.6405C16.9962 23.3583 26.9771 13.3726 39.2534 7.1145C53.2096 0 71.4793 0 108.019 0H371.156C407.695 0 425.965 0 439.921 7.1145C452.197 13.3726 462.178 23.3583 468.433 35.6405C475.544 49.6035 475.544 67.8821 475.544 104.439V849.242C475.544 885.8 475.544 904.078 468.433 918.041C462.178 930.323 452.197 940.309 439.921 946.567C425.965 953.682 407.695 953.682 371.156 953.682H108.019C71.4793 953.682 53.2096 953.682 39.2534 946.567C26.9771 940.309 16.9962 930.323 10.7411 918.041C3.63007 904.078 3.63007 885.8 3.63007 849.242V104.439Z" fill="#F2F2F2"/>
</g>
<path d="M32.671 92.21C32.671 69.9173 32.671 58.771 37.0123 50.2562C40.831 42.7665 46.9243 36.6771 54.419 32.8609C62.9392 28.5225 74.0929 28.5225 96.4002 28.5225H383.293C405.6 28.5225 416.754 28.5225 425.274 32.8609C432.769 36.6771 438.862 42.7665 442.681 50.2562C447.022 58.771 447.022 69.9173 447.022 92.2101V861.472C447.022 883.765 447.022 894.911 442.681 903.426C438.862 910.916 432.769 917.005 425.274 920.821C416.754 925.16 405.6 925.16 383.293 925.16H96.4003C74.0929 925.16 62.9392 925.16 54.419 920.821C46.9243 917.005 40.831 910.916 37.0123 903.426C32.671 894.911 32.671 883.765 32.671 861.472V92.21Z" fill="url(#paint0_linear)"/>
<g filter="url(#filter1_i)">
<path d="M0 131.716C0 129.714 1.62526 128.091 3.63011 128.091V128.091V166.985V166.985C1.62526 166.985 0 165.362 0 163.359V131.716Z" fill="white"/>
</g>
<g filter="url(#filter2_i)">
<path d="M0 200.177C0 198.171 1.62526 196.545 3.63011 196.545V196.545V266.554V266.554C1.62526 266.554 0 264.928 0 262.922V200.177Z" fill="white"/>
</g>
<g filter="url(#filter3_i)">
<path d="M0 287.791C0 285.8 1.62526 284.186 3.63011 284.186V284.186V353.676V353.676C1.62526 353.676 0 352.062 0 350.071V287.791Z" fill="white"/>
</g>
<g filter="url(#filter4_i)">
<path d="M479.175 223.426C479.175 221.468 477.549 219.881 475.544 219.881V219.881V330.859V330.859C477.549 330.859 479.175 329.271 479.175 327.314V223.426Z" fill="white"/>
</g>
<path fill-rule="evenodd" clip-rule="evenodd" d="M246.453 28.5225H118.238C121.954 28.7462 124.076 31.3061 124.308 34.6275V39.0941C124.308 51.872 134.702 62.2306 147.524 62.2306H246.453H250.78H332.169C344.991 62.2306 355.385 51.872 355.385 39.0941V34.6275C355.617 31.3061 357.739 28.7462 361.455 28.5225H250.78H246.453Z" fill="#F2F2F2"/>
<path d="M210.028 38.6531C210.028 36.4948 211.842 34.7451 214.079 34.7451H265.095C267.333 34.7451 269.147 36.4948 269.147 38.6531V39.1345C269.147 41.2928 267.333 43.0425 265.095 43.0425H214.079C211.842 43.0425 210.028 41.2928 210.028 39.1345V38.6531Z" fill="#EAEAEA"/>
<path d="M296.632 38.894C296.632 42.6173 293.614 45.6356 289.89 45.6356C286.167 45.6356 283.149 42.6173 283.149 38.894C283.149 35.1707 286.167 32.1523 289.89 32.1523C293.614 32.1523 296.632 35.1707 296.632 38.894Z" fill="#C4C4C4"/>
<path d="M294.039 38.8938C294.039 41.1851 292.182 43.0425 289.89 43.0425C287.599 43.0425 285.742 41.1851 285.742 38.8938C285.742 36.6026 287.599 34.7451 289.89 34.7451C292.182 34.7451 294.039 36.6026 294.039 38.8938Z" fill="url(#paint1_radial)"/>
<mask id="mask0" mask-type="alpha" maskUnits="userSpaceOnUse" x="210" y="34" width="60" height="10">
<path d="M210.028 38.6531C210.028 36.4948 211.842 34.7451 214.079 34.7451H265.095C267.333 34.7451 269.147 36.4948 269.147 38.6531V39.1345C269.147 41.2928 267.333 43.0425 265.095 43.0425H214.079C211.842 43.0425 210.028 41.2928 210.028 39.1345V38.6531Z" fill="#EAEAEA"/>
</mask>
<g mask="url(#mask0)">
<path fill-rule="evenodd" clip-rule="evenodd" d="M190.962 34.7451H189.803V43.0423H189.803L189.803 43.0425L283.148 43.0425L283.148 43.0423L283.148 34.7451H281.989H280.076H278.916H277.003H275.844H273.93H272.771H270.857H269.698H267.784H266.625H264.711H263.552H261.638H260.479H258.565H257.406H255.492H254.333H252.42H251.261H249.347H248.188H246.274H245.115H243.201H242.042H240.128H238.969H237.055H235.896H233.982H232.823H230.909H229.75H227.836H226.677H224.764H223.604H221.691H220.532H218.618H217.459H215.545H214.386H212.472H211.313H209.399H208.24H206.326H205.167H203.253H202.094H200.181H199.021H197.108H195.949H194.035H192.876L190.962 34.7451V34.7451ZM281.989 36.4305H280.076V38.0512H281.989V36.4305ZM281.989 39.7366H280.076V41.3571H281.989V39.7366ZM278.916 39.7366V41.3571H277.003V39.7366H278.916ZM278.916 36.4305V38.0512H277.003V36.4305H278.916ZM275.844 36.4305H273.93V38.0512H275.844V36.4305ZM275.844 39.7366H273.93V41.3571H275.844V39.7366ZM272.771 39.7366V41.3571H270.857V39.7366H272.771ZM272.771 36.4305V38.0512H270.857V36.4305H272.771ZM269.698 36.4305H267.784V38.0512H269.698V36.4305ZM269.698 39.7366H267.784V41.3571H269.698V39.7366ZM266.625 39.7366V41.3571H264.711V39.7366H266.625ZM266.625 36.4305V38.0512H264.711V36.4305H266.625ZM263.552 36.4305H261.638V38.0512H263.552V36.4305ZM263.552 39.7366H261.638V41.3571H263.552V39.7366ZM260.479 39.7366V41.3571H258.565V39.7366H260.479ZM260.479 36.4305V38.0512H258.565V36.4305H260.479ZM257.406 36.4305H255.492V38.0512H257.406V36.4305ZM257.406 39.7366H255.492V41.3571H257.406V39.7366ZM254.333 39.7366V41.3571H252.42V39.7366H254.333ZM254.333 36.4305V38.0512H252.42V36.4305H254.333ZM251.261 36.4305H249.347V38.0512H251.261V36.4305ZM251.261 39.7366H249.347V41.3571H251.261V39.7366ZM248.188 39.7366V41.3571H246.274V39.7366H248.188ZM248.188 36.4305V38.0512H246.274V36.4305H248.188ZM245.115 36.4305H243.201V38.0512H245.115V36.4305ZM245.115 39.7366H243.201V41.3571H245.115V39.7366ZM242.042 39.7366V41.3571H240.128V39.7366H242.042ZM242.042 36.4305V38.0512H240.128V36.4305H242.042ZM238.969 36.4305H237.055V38.0512H238.969V36.4305ZM238.969 39.7366H237.055V41.3571H238.969V39.7366ZM235.896 39.7366V41.3571H233.982V39.7366H235.896ZM235.896 36.4305V38.0512H233.982V36.4305H235.896ZM232.823 36.4305H230.909V38.0512H232.823V36.4305ZM232.823 39.7366H230.909V41.3571H232.823V39.7366ZM229.75 39.7366V41.3571H227.836V39.7366H229.75ZM229.75 36.4305V38.0512H227.836V36.4305H229.75ZM226.677 36.4305H224.764V38.0512H226.677V36.4305ZM226.677 39.7366H224.764V41.3571H226.677V39.7366ZM223.604 39.7366V41.3571H221.691V39.7366H223.604ZM223.604 36.4305V38.0512H221.691V36.4305H223.604ZM220.532 36.4305H218.618V38.0512H220.532V36.4305ZM220.532 39.7366H218.618V41.3571H220.532V39.7366ZM217.459 39.7366V41.3571H215.545V39.7366H217.459ZM217.459 36.4305V38.0512H215.545V36.4305H217.459ZM214.386 36.4305H212.472V38.0512H214.386V36.4305ZM214.386 39.7366H212.472V41.3571H214.386V39.7366ZM211.313 39.7366V41.3571H209.399V39.7366H211.313ZM211.313 36.4305V38.0512H209.399V36.4305H211.313ZM208.24 36.4305H206.326V38.0512H208.24V36.4305ZM208.24 39.7366H206.326V41.3571H208.24V39.7366ZM205.167 39.7366V41.3571H203.253V39.7366H205.167ZM205.167 36.4305V38.0512H203.253V36.4305H205.167ZM202.094 36.4305H200.181V38.0512H202.094V36.4305ZM202.094 39.7366H200.181V41.3571H202.094V39.7366ZM199.021 39.7366V41.3571H197.108V39.7366H199.021ZM199.021 36.4305V38.0512H197.108V36.4305H199.021ZM195.949 36.4305H194.035V38.0512H195.949V36.4305ZM195.949 39.7366H194.035V41.3571H195.949V39.7366ZM192.876 39.7366V41.3571H190.962V39.7366H192.876ZM192.876 36.4305V38.0512H190.962V36.4305H192.876Z" fill="#C4C4C4"/>
</g>
<defs>
<filter id="filter0_ii" x="-6.36993" y="-10" width="481.914" height="967.682" filterUnits="userSpaceOnUse" color-interpolation-filters="sRGB">
<feFlood flood-opacity="0" result="BackgroundImageFix"/>
<feBlend mode="normal" in="SourceGraphic" in2="BackgroundImageFix" result="shape"/>
<feColorMatrix in="SourceAlpha" type="matrix" values="0 0 0 0 0 0 0 0 0 0 0 0 0 0 0 0 0 0 127 0" result="hardAlpha"/>
<feOffset dx="-10" dy="-10"/>
<feGaussianBlur stdDeviation="10"/>
<feComposite in2="hardAlpha" operator="arithmetic" k2="-1" k3="1"/>
<feColorMatrix type="matrix" values="0 0 0 0 0 0 0 0 0 0 0 0 0 0 0 0 0 0 0.15 0"/>
<feBlend mode="normal" in2="shape" result="effect1_innerShadow"/>
<feColorMatrix in="SourceAlpha" type="matrix" values="0 0 0 0 0 0 0 0 0 0 0 0 0 0 0 0 0 0 127 0" result="hardAlpha"/>
<feOffset dy="4"/>
<feGaussianBlur stdDeviation="2"/>
<feComposite in2="hardAlpha" operator="arithmetic" k2="-1" k3="1"/>
<feColorMatrix type="matrix" values="0 0 0 0 0 0 0 0 0 0 0 0 0 0 0 0 0 0 0.07 0"/>
<feBlend mode="normal" in2="effect1_innerShadow" result="effect2_innerShadow"/>
</filter>
<filter id="filter1_i" x="0" y="128.091" width="3.63011" height="42.894" filterUnits="userSpaceOnUse" color-interpolation-filters="sRGB">
<feFlood flood-opacity="0" result="BackgroundImageFix"/>
<feBlend mode="normal" in="SourceGraphic" in2="BackgroundImageFix" result="shape"/>
<feColorMatrix in="SourceAlpha" type="matrix" values="0 0 0 0 0 0 0 0 0 0 0 0 0 0 0 0 0 0 127 0" result="hardAlpha"/>
<feOffset dy="4"/>
<feGaussianBlur stdDeviation="2"/>
<feComposite in2="hardAlpha" operator="arithmetic" k2="-1" k3="1"/>
<feColorMatrix type="matrix" values="0 0 0 0 0 0 0 0 0 0 0 0 0 0 0 0 0 0 0.25 0"/>
<feBlend mode="normal" in2="shape" result="effect1_innerShadow"/>
</filter>
<filter id="filter2_i" x="0" y="196.545" width="3.63011" height="74.0093" filterUnits="userSpaceOnUse" color-interpolation-filters="sRGB">
<feFlood flood-opacity="0" result="BackgroundImageFix"/>
<feBlend mode="normal" in="SourceGraphic" in2="BackgroundImageFix" result="shape"/>
<feColorMatrix in="SourceAlpha" type="matrix" values="0 0 0 0 0 0 0 0 0 0 0 0 0 0 0 0 0 0 127 0" result="hardAlpha"/>
<feOffset dy="4"/>
<feGaussianBlur stdDeviation="2"/>
<feComposite in2="hardAlpha" operator="arithmetic" k2="-1" k3="1"/>
<feColorMatrix type="matrix" values="0 0 0 0 0 0 0 0 0 0 0 0 0 0 0 0 0 0 0.25 0"/>
<feBlend mode="normal" in2="shape" result="effect1_innerShadow"/>
</filter>
<filter id="filter3_i" x="0" y="284.186" width="3.63011" height="73.4907" filterUnits="userSpaceOnUse" color-interpolation-filters="sRGB">
<feFlood flood-opacity="0" result="BackgroundImageFix"/>
<feBlend mode="normal" in="SourceGraphic" in2="BackgroundImageFix" result="shape"/>
<feColorMatrix in="SourceAlpha" type="matrix" values="0 0 0 0 0 0 0 0 0 0 0 0 0 0 0 0 0 0 127 0" result="hardAlpha"/>
<feOffset dy="4"/>
<feGaussianBlur stdDeviation="2"/>
<feComposite in2="hardAlpha" operator="arithmetic" k2="-1" k3="1"/>
<feColorMatrix type="matrix" values="0 0 0 0 0 0 0 0 0 0 0 0 0 0 0 0 0 0 0.25 0"/>
<feBlend mode="normal" in2="shape" result="effect1_innerShadow"/>
</filter>
<filter id="filter4_i" x="475.544" y="219.881" width="3.63011" height="114.978" filterUnits="userSpaceOnUse" color-interpolation-filters="sRGB">
<feFlood flood-opacity="0" result="BackgroundImageFix"/>
<feBlend mode="normal" in="SourceGraphic" in2="BackgroundImageFix" result="shape"/>
<feColorMatrix in="SourceAlpha" type="matrix" values="0 0 0 0 0 0 0 0 0 0 0 0 0 0 0 0 0 0 127 0" result="hardAlpha"/>
<feOffset dy="4"/>
<feGaussianBlur stdDeviation="2"/>
<feComposite in2="hardAlpha" operator="arithmetic" k2="-1" k3="1"/>
<feColorMatrix type="matrix" values="0 0 0 0 0 0 0 0 0 0 0 0 0 0 0 0 0 0 0.25 0"/>
<feBlend mode="normal" in2="shape" result="effect1_innerShadow"/>
</filter>
<linearGradient id="paint0_linear" x1="239.847" y1="28.5225" x2="239.847" y2="925.16" gradientUnits="userSpaceOnUse">
<stop stop-color="white"/>
<stop offset="1" stop-color="white" stop-opacity="0"/>
</linearGradient>
<radialGradient id="paint1_radial" cx="0" cy="0" r="1" gradientUnits="userSpaceOnUse" gradientTransform="translate(288.181 38.3549) rotate(69.9659) scale(4.98958)">
<stop stop-color="#A792FE"/>
<stop offset="1" stop-color="#141023"/>
</radialGradient>
</defs>
</svg>
