<svg width="713" height="143" viewBox="0 0 713 143" fill="none" xmlns="http://www.w3.org/2000/svg">
<path d="M2.26829 72.3667H0V143H713V68.0333L707.707 68.4667V65L702.415 63.2667L700.902 60.8833H703.549V58.7167L700.902 57.2L699.012 50.9167V57.2L695.232 58.2833L696.744 60.2333V63.2667L692.207 65.8667V68.0333L689.183 68.4667V65H687.671V68.0333L680.488 68.4667V63.7L675.195 65L672.927 63.7L669.524 65L667.634 63.2667L661.585 64.5667L659.317 62.4L654.402 65L652.134 62.4L647.598 64.5667L639.28 63.7V70.4167H635.122V63.2667L619.622 63.7L620.756 68.4667H617.354V64.5667L615.085 62.4H607.146L603.366 66.3L590.134 63.7L578.037 64.5667H571.232L567.073 70.4167L561.024 73.2333L560.268 70.4167H557.244V50.9167H555.732V48.1L552.707 47.6667V43.3333H550.439V39.4333H549.305V37.05H547.793L547.037 29.25H545.146L544.39 37.05H543.634V39.4333H542.122V43.3333H540.61V48.1L537.207 47.0167L537.963 50.9167H536.073V65.8667C535.569 65.4333 534.561 64.3933 534.561 63.7C534.561 63.0067 531.789 62.5444 530.402 62.4L527.756 66.3L526.622 63.7L523.219 61.1L520.573 65.8667H517.927L514.524 63.7L510.744 64.5667L506.963 63.2667L502.805 65.4333V54.3833L501.671 52.4333L498.646 51.1333L495.244 50.9167L491.463 51.5667L489.573 52.8667L489.951 72.15H480.5L479.744 53.3L477.476 50.9167L473.317 49.8333L468.024 50.9167L465.756 52.8667V62.4H461.598L458.951 66.95L451.768 61.5333L447.232 65.8667L432.488 66.3L428.707 64.5667L424.549 65.8667L417.744 63.2667L408.671 63.7L397.707 62.4L395.061 52.8667L392.793 63.7L385.61 64.5667L379.939 59.8L375.78 65.2167L368.976 63.7L371.244 68.0333H367.841V65.8667L362.549 62.4L359.524 65.2167H353.476L355.366 68.6833H351.585L349.317 65.2167L345.159 62.4V66.95L339.11 68.0333L331.927 66.3L329.28 53.7333L328.146 58.5L326.256 65.2167H322.098L319.829 69.7667L316.805 65.8667L314.537 62.4L311.134 66.95L307.732 69.7667L306.22 65.2167L301.305 65.8667L296.012 65.2167L291.476 68.0333L289.207 63.7L286.939 60.45L286.183 55.9L284.293 56.3333L283.537 46.8L282.78 56.3333H280.89V60.8833L277.11 63.7L274.463 62.4L277.11 61.5333V60.8833L273.707 61.5333L270.305 59.8L272.195 59.5833L270.683 58.5L268.415 58.9333L265.39 58.0667L267.28 57.2L264.256 55.9L263.5 57.2L258.585 55.9L257.829 54.3833H256.695L255.939 55.9L251.024 55.0333V53.7333H249.512V55.0333H244.598V54.3833V53.7333H241.951L242.707 55.4667H238.171L237.415 54.3833C236.659 54.3111 234.995 54.21 234.39 54.3833C233.785 54.5567 235.65 55.4667 236.659 55.9L231.366 57.2V55.9L228.341 55.4667V58.0667L225.317 59.5833L223.805 58.0667H221.537L223.805 59.5833L219.646 60.8833H216.622L219.646 62.4L214.732 63.7L206.037 62.4V49.8333H203.012L206.037 48.5333V37.9167L199.988 37.2667V35.5333L197.341 35.1V34.2333H193.561V35.1L189.78 35.75V34.2333H186V35.1L182.976 35.5333L183.732 37.9167H176.927V48.5333L179.951 49.8333L176.927 50.7V63.7H169.744V61.5333L167.098 60.0167L164.073 60.8833V64.5667L158.402 62.4L154.622 60.8833L143.28 69.7667L140.256 66.3L136.854 68.0333H129.671L123.244 65.8667L121.354 41.8167L127.402 39.8667V39.2167L125.134 39V37.9167H127.402V36.6167H124.756V35.75H126.646V34.2333L121.732 34.0167L126.646 31.6333V27.0833L120.976 26V24.4833L124 23.8333V22.75L120.598 22.5333V18.85L119.841 10.6167L118.329 0L117.951 10.6167L117.195 18.85V22.3167L114.171 22.75V23.6167L117.195 24.4833L117.573 26L111.902 27.0833V31.4167L115.683 34.0167H113.793H110.768V35.1L113.037 35.75L113.793 36.6167H110.768V37.9167H113.037V39.2167L110.768 39V39.65L115.683 41.6L113.793 62.4H97.9146V63.7H94.8902V68.0333L91.1098 67.3833L87.3293 63.7L83.1707 68.0333L75.6098 68.6833L69.1829 70.6333L64.6463 68.6833H60.1098L55.9512 64.5667L49.5244 68.6833H34.4024L33.2683 72.3667L30.2439 69.7667V68.6833L27.9756 68.0333L26.0854 71.2833V73.6667L23.8171 74.5333V68.0333H21.5488V70.6333H19.2805V63.7H6.04878V71.2833H4.15854V69.7667H2.26829V72.3667Z" fill="#FF6C6C"/>
</svg>
