<svg width="215" height="294" viewBox="0 0 215 294" fill="none" xmlns="http://www.w3.org/2000/svg">
<g filter="url(#filter0_d)">
<path d="M14.3311 262.819V16.4305L22.8377 21.2914L34.99 14L46.8385 21.2914L59.2947 14L71.447 21.2914L83.2955 14L95.1441 21.2914L107.904 14L120.056 21.2914L131.905 14L144.057 21.2914L156.21 14L168.362 21.2914L180.514 14L188.717 18.8609V265.249L180.514 260.692L168.666 267.984L156.513 260.692L144.057 267.984L132.209 260.692L119.449 267.984L107.296 260.692L94.8403 267.984L82.9917 260.692L71.1432 267.984L58.9909 260.692L46.5347 267.984L34.6862 260.692L22.5339 267.984L14.3311 262.819Z" fill="white"/>
</g>
<path d="M52.6342 68.0294C52.5142 68.0694 52.3542 68.1094 52.1542 68.1494C51.9542 68.2094 51.7342 68.2394 51.4942 68.2394C50.6142 68.2394 50.1742 67.8694 50.1742 67.1294V51.1694C50.1742 50.8494 50.2542 50.6094 50.4142 50.4494C50.5742 50.2694 50.8242 50.1294 51.1642 50.0294C51.7442 49.8494 52.4542 49.7194 53.2942 49.6394C54.1542 49.5594 54.9842 49.5194 55.7842 49.5194C58.3042 49.5194 60.1742 50.0294 61.3942 51.0494C62.6342 52.0494 63.2542 53.4794 63.2542 55.3394C63.2542 56.7194 62.8942 57.8794 62.1742 58.8194C61.4742 59.7594 60.4042 60.4294 58.9642 60.8294C59.4642 61.4694 59.9642 62.1094 60.4642 62.7494C60.9642 63.3894 61.4342 63.9994 61.8742 64.5794C62.3342 65.1394 62.7342 65.6494 63.0742 66.1094C63.4342 66.5694 63.7142 66.9294 63.9142 67.1894C63.8342 67.5294 63.6542 67.7994 63.3742 67.9994C63.1142 68.1994 62.8442 68.2994 62.5642 68.2994C62.2242 68.2994 61.9442 68.2194 61.7242 68.0594C61.5042 67.8994 61.2742 67.6494 61.0342 67.3094L56.6542 61.1894H52.6342V68.0294ZM56.0542 59.1494C57.5342 59.1494 58.6942 58.8294 59.5342 58.1894C60.3742 57.5494 60.7942 56.5994 60.7942 55.3394C60.7942 54.0794 60.3542 53.1394 59.4742 52.5194C58.5942 51.8794 57.3342 51.5594 55.6942 51.5594C55.1542 51.5594 54.6042 51.5894 54.0442 51.6494C53.5042 51.6894 53.0242 51.7494 52.6042 51.8294V59.1494H56.0542ZM69.1603 68.0894C68.7603 68.0894 68.4403 67.9694 68.2003 67.7294C67.9603 67.4894 67.8403 67.1694 67.8403 66.7694V51.1694C67.8403 50.7694 67.9603 50.4494 68.2003 50.2094C68.4403 49.9694 68.7603 49.8494 69.1603 49.8494H79.1203C79.1803 49.9494 79.2403 50.0894 79.3003 50.2694C79.3603 50.4294 79.3903 50.6094 79.3903 50.8094C79.3903 51.1494 79.3103 51.4194 79.1503 51.6194C78.9903 51.8194 78.7603 51.9194 78.4603 51.9194H70.2703V57.7094H78.1903C78.2503 57.8094 78.3103 57.9494 78.3703 58.1294C78.4303 58.2894 78.4603 58.4694 78.4603 58.6694C78.4603 59.0094 78.3803 59.2794 78.2203 59.4794C78.0603 59.6594 77.8303 59.7494 77.5303 59.7494H70.2703V66.0494H79.2703C79.3303 66.1494 79.3903 66.2794 79.4503 66.4394C79.5103 66.5994 79.5403 66.7894 79.5403 67.0094C79.5403 67.3494 79.4603 67.6194 79.3003 67.8194C79.1403 67.9994 78.9103 68.0894 78.6103 68.0894H69.1603ZM96.922 51.8594C96.922 52.1394 96.832 52.3794 96.652 52.5794C96.492 52.7794 96.302 52.9294 96.082 53.0294C95.562 52.6694 94.952 52.3294 94.252 52.0094C93.552 51.6894 92.642 51.5294 91.522 51.5294C90.602 51.5294 89.752 51.6894 88.972 52.0094C88.192 52.3294 87.512 52.7994 86.932 53.4194C86.352 54.0394 85.892 54.8194 85.552 55.7594C85.232 56.6994 85.072 57.7794 85.072 58.9994C85.072 60.2394 85.232 61.3194 85.552 62.2394C85.872 63.1594 86.312 63.9294 86.872 64.5494C87.452 65.1694 88.142 65.6394 88.942 65.9594C89.742 66.2594 90.632 66.4094 91.612 66.4094C92.652 66.4094 93.552 66.2694 94.312 65.9894C95.092 65.6894 95.742 65.3394 96.262 64.9394C96.462 65.0194 96.652 65.1694 96.832 65.3894C97.012 65.5894 97.102 65.8294 97.102 66.1094C97.102 66.5294 96.862 66.9094 96.382 67.2494C95.922 67.5694 95.292 67.8494 94.492 68.0894C93.692 68.3494 92.672 68.4794 91.432 68.4794C90.172 68.4794 89.002 68.2794 87.922 67.8794C86.842 67.4794 85.902 66.8894 85.102 66.1094C84.322 65.3094 83.702 64.3194 83.242 63.1394C82.782 61.9594 82.552 60.5794 82.552 58.9994C82.552 57.4194 82.782 56.0394 83.242 54.8594C83.722 53.6594 84.362 52.6594 85.162 51.8594C85.962 51.0594 86.892 50.4594 87.952 50.0594C89.032 49.6594 90.162 49.4594 91.342 49.4594C92.162 49.4594 92.912 49.5294 93.592 49.6694C94.292 49.8094 94.882 49.9994 95.362 50.2394C95.862 50.4594 96.242 50.7194 96.502 51.0194C96.782 51.2994 96.922 51.5794 96.922 51.8594ZM102.559 68.0894C102.159 68.0894 101.839 67.9694 101.599 67.7294C101.359 67.4894 101.239 67.1694 101.239 66.7694V51.1694C101.239 50.7694 101.359 50.4494 101.599 50.2094C101.839 49.9694 102.159 49.8494 102.559 49.8494H112.519C112.579 49.9494 112.639 50.0894 112.699 50.2694C112.759 50.4294 112.789 50.6094 112.789 50.8094C112.789 51.1494 112.709 51.4194 112.549 51.6194C112.389 51.8194 112.159 51.9194 111.859 51.9194H103.669V57.7094H111.589C111.649 57.8094 111.709 57.9494 111.769 58.1294C111.829 58.2894 111.859 58.4694 111.859 58.6694C111.859 59.0094 111.779 59.2794 111.619 59.4794C111.459 59.6594 111.229 59.7494 110.929 59.7494H103.669V66.0494H112.669C112.729 66.1494 112.789 66.2794 112.849 66.4394C112.909 66.5994 112.939 66.7894 112.939 67.0094C112.939 67.3494 112.859 67.6194 112.699 67.8194C112.539 67.9994 112.309 68.0894 112.009 68.0894H102.559ZM119.636 68.0294C119.536 68.0694 119.386 68.1094 119.186 68.1494C118.986 68.2094 118.766 68.2394 118.526 68.2394C117.646 68.2394 117.206 67.8694 117.206 67.1294V49.9094C117.306 49.8694 117.456 49.8294 117.656 49.7894C117.876 49.7294 118.106 49.6994 118.346 49.6994C119.206 49.6994 119.636 50.0694 119.636 50.8094V68.0294ZM127.488 61.5794V68.0294C127.368 68.0694 127.208 68.1094 127.008 68.1494C126.808 68.2094 126.588 68.2394 126.348 68.2394C125.468 68.2394 125.028 67.8694 125.028 67.1294V51.1694C125.028 50.8494 125.108 50.6094 125.268 50.4494C125.428 50.2694 125.678 50.1294 126.018 50.0294C126.598 49.8494 127.298 49.7194 128.118 49.6394C128.958 49.5594 129.768 49.5194 130.548 49.5194C133.088 49.5194 134.938 50.0594 136.098 51.1394C137.278 52.1994 137.868 53.6394 137.868 55.4594C137.868 57.3194 137.268 58.8094 136.068 59.9294C134.868 61.0294 133.018 61.5794 130.518 61.5794H127.488ZM130.368 59.5394C131.968 59.5394 133.208 59.2094 134.088 58.5494C134.968 57.8894 135.408 56.8694 135.408 55.4894C135.408 54.1294 134.978 53.1394 134.118 52.5194C133.278 51.8794 132.068 51.5594 130.488 51.5594C129.948 51.5594 129.408 51.5894 128.868 51.6494C128.348 51.6894 127.878 51.7494 127.458 51.8294V59.5394H130.368ZM148.293 51.9194V68.0294C148.193 68.0694 148.033 68.1094 147.813 68.1494C147.613 68.2094 147.403 68.2394 147.183 68.2394C146.303 68.2394 145.863 67.8694 145.863 67.1294V51.9194H140.253C140.193 51.8194 140.133 51.6894 140.073 51.5294C140.013 51.3494 139.983 51.1494 139.983 50.9294C139.983 50.5894 140.063 50.3294 140.223 50.1494C140.383 49.9494 140.613 49.8494 140.913 49.8494H153.903C153.963 49.9494 154.023 50.0894 154.083 50.2694C154.143 50.4294 154.173 50.6094 154.173 50.8094C154.173 51.1494 154.093 51.4194 153.933 51.6194C153.773 51.8194 153.543 51.9194 153.243 51.9194H148.293Z" fill="#696A6E"/>
<line x1="31.9131" y1="199.323" x2="31.9131" y2="246.717" stroke="#696A6E" stroke-width="6"/>
<line x1="38.5977" y1="199.323" x2="38.5977" y2="246.717" stroke="#696A6E" stroke-width="6"/>
<line x1="73.8398" y1="199.323" x2="73.8398" y2="246.717" stroke="#696A6E" stroke-width="6"/>
<line x1="94.499" y1="199.323" x2="94.499" y2="246.717" stroke="#696A6E" stroke-width="6"/>
<line x1="53.8955" y1="199.323" x2="53.8955" y2="246.717" stroke="#696A6E" stroke-width="5"/>
<line x1="68.4785" y1="199.323" x2="68.4785" y2="246.717" stroke="#696A6E" stroke-width="5"/>
<line x1="78.8076" y1="199.323" x2="78.8076" y2="246.717" stroke="#696A6E" stroke-width="5"/>
<line x1="111.619" y1="199.323" x2="111.619" y2="246.717" stroke="#696A6E" stroke-width="5"/>
<line x1="107.581" y1="199.323" x2="107.581" y2="246.717" stroke="#696A6E" stroke-width="3"/>
<line x1="47.8896" y1="199.323" x2="47.8896" y2="246.717" stroke="#696A6E" stroke-width="10"/>
<line x1="62.4717" y1="199.323" x2="62.4717" y2="246.717" stroke="#696A6E" stroke-width="10"/>
<line x1="87.9912" y1="199.323" x2="87.9912" y2="246.717" stroke="#696A6E" stroke-width="10"/>
<line x1="103.398" y1="199.323" x2="103.398" y2="246.717" stroke="#696A6E" stroke-width="8"/>
<rect x="41.6748" y="70.5084" width="10.3295" height="1.21523" rx="0.607617" fill="#3D4C5F"/>
<rect x="28.3057" y="70.5084" width="5.46855" height="1.21523" rx="0.607617" fill="#3D4C5F"/>
<rect x="168.666" y="70.5084" width="5.46855" height="1.21523" rx="0.607617" fill="#3D4C5F"/>
<rect x="59.9023" y="70.5084" width="10.3295" height="1.21523" rx="0.607617" fill="#3D4C5F"/>
<rect x="78.1299" y="70.5084" width="10.3295" height="1.21523" rx="0.607617" fill="#3D4C5F"/>
<rect x="96.3604" y="70.5084" width="10.3295" height="1.21523" rx="0.607617" fill="#3D4C5F"/>
<rect x="114.588" y="70.5084" width="10.3295" height="1.21523" rx="0.607617" fill="#3D4C5F"/>
<rect x="132.815" y="70.5084" width="10.3295" height="1.21523" rx="0.607617" fill="#3D4C5F"/>
<rect x="151.046" y="70.5084" width="10.3295" height="1.21523" rx="0.607617" fill="#3D4C5F"/>
<rect x="41.6748" y="181.702" width="10.3295" height="1.21523" rx="0.607617" fill="#3D4C5F"/>
<rect x="28.3057" y="181.702" width="5.46855" height="1.21523" rx="0.607617" fill="#3D4C5F"/>
<rect x="168.666" y="181.702" width="5.46855" height="1.21523" rx="0.607617" fill="#3D4C5F"/>
<rect x="59.9023" y="181.702" width="10.3295" height="1.21523" rx="0.607617" fill="#3D4C5F"/>
<rect x="78.1299" y="181.702" width="10.3295" height="1.21523" rx="0.607617" fill="#3D4C5F"/>
<rect x="96.3604" y="181.702" width="10.3295" height="1.21523" rx="0.607617" fill="#3D4C5F"/>
<rect x="114.588" y="181.702" width="10.3295" height="1.21523" rx="0.607617" fill="#3D4C5F"/>
<rect x="132.815" y="181.702" width="10.3295" height="1.21523" rx="0.607617" fill="#3D4C5F"/>
<rect x="151.046" y="181.702" width="10.3295" height="1.21523" rx="0.607617" fill="#3D4C5F"/>
<rect x="28.3057" y="83.876" width="91.7501" height="3.6457" rx="1.82285" fill="#9099A6"/>
<rect x="161.374" y="83.8759" width="12.7599" height="3.6457" rx="1.82285" fill="#9099A6"/>
<rect x="161.374" y="94.813" width="12.7599" height="3.6457" rx="1.82285" fill="#9099A6"/>
<rect x="161.374" y="105.75" width="12.7599" height="3.6457" rx="1.82285" fill="#9099A6"/>
<rect x="161.374" y="127.624" width="12.7599" height="3.6457" rx="1.82285" fill="#9099A6"/>
<rect x="161.374" y="127.624" width="12.7599" height="3.6457" rx="1.82285" fill="#9099A6"/>
<rect x="161.374" y="138.561" width="12.7599" height="3.6457" rx="1.82285" fill="#9099A6"/>
<rect x="161.374" y="149.499" width="12.7599" height="3.6457" rx="1.82285" fill="#9099A6"/>
<rect x="161.374" y="160.436" width="12.7599" height="3.6457" rx="1.82285" fill="#9099A6"/>
<rect x="132.815" y="199.323" width="41.3179" height="3.6457" rx="1.82285" fill="#9099A6"/>
<rect x="132.815" y="210.26" width="41.3179" height="3.6457" rx="1.82285" fill="#9099A6"/>
<rect x="151.045" y="221.197" width="23.0894" height="3.6457" rx="1.82285" fill="#9099A6"/>
<rect x="28.3057" y="94.813" width="97.8263" height="3.6457" rx="1.82285" fill="#9099A6"/>
<rect x="28.9131" y="105.75" width="71.6988" height="3.6457" rx="1.82285" fill="#9099A6"/>
<rect x="28.9131" y="127.624" width="97.8263" height="3.6457" rx="1.82285" fill="#9099A6"/>
<rect x="28.9131" y="138.561" width="51.6474" height="3.6457" rx="1.82285" fill="#9099A6"/>
<rect x="28.9131" y="149.499" width="97.8263" height="3.6457" rx="1.82285" fill="#9099A6"/>
<rect x="29.5205" y="160.436" width="80.813" height="3.6457" rx="1.82285" fill="#9099A6"/>
<defs>
<filter id="filter0_d" x="0.331055" y="0" width="214.386" height="293.984" filterUnits="userSpaceOnUse" color-interpolation-filters="sRGB">
<feFlood flood-opacity="0" result="BackgroundImageFix"/>
<feColorMatrix in="SourceAlpha" type="matrix" values="0 0 0 0 0 0 0 0 0 0 0 0 0 0 0 0 0 0 127 0"/>
<feOffset dx="6" dy="6"/>
<feGaussianBlur stdDeviation="10"/>
<feColorMatrix type="matrix" values="0 0 0 0 0 0 0 0 0 0 0 0 0 0 0 0 0 0 0.25 0"/>
<feBlend mode="normal" in2="BackgroundImageFix" result="effect1_dropShadow"/>
<feBlend mode="normal" in="SourceGraphic" in2="effect1_dropShadow" result="shape"/>
</filter>
</defs>
</svg>
