<svg width="161" height="80" viewBox="0 0 161 80" fill="none" xmlns="http://www.w3.org/2000/svg">
<path d="M2 77.3964L31.5223 59.0447L69.0236 66.2258L112.11 34.3098L132.058 43.8846L150.409 11.1707" stroke="#FF6C6C" stroke-width="4"/>
<path d="M151.579 4.82116C152.807 4.25243 154.234 5.04244 154.404 6.38527L154.961 10.7956C155.166 12.4197 153.44 13.5891 152.008 12.796L147.417 10.2536C145.985 9.46058 146.06 7.3769 147.545 6.68906L151.579 4.82116Z" fill="#FF6C6C"/>
<path d="M152.286 48.5484C153.502 49.1442 153.786 50.75 152.85 51.7275L149.775 54.938C148.643 56.1202 146.648 55.5158 146.362 53.904L145.445 48.7363C145.159 47.1245 146.825 45.8706 148.295 46.5913L152.286 48.5484Z" fill="#9099A6"/>
<path d="M2 60.2417L43.0919 76.9977L67.8268 27.5278L110.913 55.0554L147.617 50.6669" stroke="#9099A6" stroke-width="4"/>
</svg>
