<svg width="887" height="272" viewBox="0 0 887 272" fill="none" xmlns="http://www.w3.org/2000/svg">
<path d="M36.4851 228.853C27.9489 226.92 8.60497 207.337 0 197.787V272H887V0L836.747 60.7513L784.773 74.2132L750.353 101.482L730.39 120.122H697.002L672.908 144.629H636.423L602.692 181.563H579.631L548.308 193.645L511.823 176.041L499.088 181.563L474.306 193.645H433.346L399.27 161.543L386.191 165.685L347.985 209.523L315.974 215.391L237.153 234.376L212.371 240.244L188.277 255.431L113.93 209.523L73.3143 228.853L62.3 224.02C57.2517 226.437 45.0212 230.786 36.4851 228.853Z" fill="#FF6C6C"/>
</svg>
