<svg width="1703" height="521" viewBox="0 0 1703 521" fill="none" xmlns="http://www.w3.org/2000/svg">
<path d="M70.0497 438.354C53.6607 434.652 16.5211 397.141 0 378.849V521H1703V0L1606.52 116.365L1506.73 142.151L1440.64 194.383L1402.32 230.086H1338.21L1291.95 277.029H1221.9L1157.14 347.774H1112.86L1052.73 370.915L982.678 337.195L958.227 347.774L910.646 370.915H832.005L766.581 309.426L741.469 317.36L668.115 401.329L606.657 412.569L455.323 448.933L407.742 460.173L361.483 489.264L218.74 401.329L140.76 438.354L119.613 429.098C109.921 433.726 86.4386 442.057 70.0497 438.354Z" fill="#FF6C6C"/>
</svg>
